<svg xmlns="http://www.w3.org/2000/svg" xmlns:xlink="http://www.w3.org/1999/xlink" width="500" zoomAndPan="magnify" viewBox="0 0 375 374.999991" height="500" preserveAspectRatio="xMidYMid meet" version="1.0"><defs><g/><clipPath id="91ebaba048"><path d="M 15.15625 15.15625 L 359.839844 15.15625 L 359.839844 359.839844 L 15.15625 359.839844 Z M 15.15625 15.15625 " clip-rule="nonzero"/></clipPath><clipPath id="4afb82c7b9"><path d="M 187.496094 15.15625 C 92.316406 15.15625 15.15625 92.316406 15.15625 187.496094 C 15.15625 282.679688 92.316406 359.839844 187.496094 359.839844 C 282.679688 359.839844 359.839844 282.679688 359.839844 187.496094 C 359.839844 92.316406 282.679688 15.15625 187.496094 15.15625 Z M 187.496094 15.15625 " clip-rule="nonzero"/></clipPath></defs><rect x="-37.5" width="450" fill="#ffffff" y="-37.499999" height="449.999989" fill-opacity="1"/><rect x="-37.5" width="450" fill="#ffffff" y="-37.499999" height="449.999989" fill-opacity="1"/><g clip-path="url(#91ebaba048)"><g clip-path="url(#4afb82c7b9)"><path stroke-linecap="butt" transform="matrix(0.75, 0, 0, 0.75, 15.155792, 15.155787)" fill="none" stroke-linejoin="miter" d="M 229.787085 0.00061722 C 102.880826 0.00061722 0.00061122 102.880832 0.00061122 229.787091 C 0.00061122 356.698557 102.880826 459.578772 229.787085 459.578772 C 356.698551 459.578772 459.578766 356.698557 459.578766 229.787091 C 459.578766 102.880832 356.698551 0.00061722 229.787085 0.00061722 Z M 229.787085 0.00061722 " stroke="#ffde59" stroke-width="20" stroke-opacity="1" stroke-miterlimit="4"/></g></g><g fill="#ffde59" fill-opacity="1"><g transform="translate(63.565874, 291.170335)"><g><path d="M 211.21875 -86.1875 C 210.875 -82.238281 208.472656 -80.265625 204.015625 -80.265625 C 202.128906 -80.265625 200.582031 -80.863281 199.375 -82.0625 C 192.863281 -87.894531 186.945312 -98.613281 181.625 -114.21875 C 176.132812 -129.144531 173.90625 -140.378906 174.9375 -147.921875 C 175.28125 -151.015625 177.253906 -152.5625 180.859375 -152.5625 C 183.253906 -152.5625 185.140625 -151.875 186.515625 -150.5 C 193.203125 -143.46875 199.289062 -132.488281 204.78125 -117.5625 C 209.582031 -103.84375 211.726562 -93.382812 211.21875 -86.1875 Z M 245.171875 -84.640625 C 244.660156 -62.003906 242.515625 -46.484375 238.734375 -38.078125 C 232.390625 -25.378906 219.613281 -18.859375 200.40625 -18.515625 C 187.375 -18.347656 177.171875 -21.695312 169.796875 -28.5625 C 168.421875 -29.925781 167.734375 -31.382812 167.734375 -32.9375 C 167.734375 -34.644531 168.71875 -36.097656 170.6875 -37.296875 C 172.664062 -38.503906 174.597656 -38.9375 176.484375 -38.59375 C 186.597656 -36.363281 194.226562 -35.59375 199.375 -36.28125 C 211.894531 -37.820312 219.269531 -46.476562 221.5 -62.25 C 222.875 -71.34375 223.5625 -89.523438 223.5625 -116.796875 C 223.5625 -150.585938 222.53125 -173.742188 220.46875 -186.265625 C 208.289062 -187.804688 198.773438 -188.578125 191.921875 -188.578125 C 184.203125 -188.398438 174.425781 -187.539062 162.59375 -186 C 161.726562 -173.3125 161.296875 -154.1875 161.296875 -128.625 C 161.296875 -112.164062 161.296875 -95.875 161.296875 -79.75 C 160.960938 -37.90625 161.820312 -6.4375 163.875 14.65625 C 164.394531 19.632812 162.59375 22.125 158.46875 22.125 C 155.550781 22.125 153.410156 20.066406 152.046875 15.953125 C 141.066406 -15.265625 136.347656 -54.539062 137.890625 -101.875 C 138.921875 -136.519531 143.035156 -166.878906 150.234375 -192.953125 C 150.921875 -195.867188 153.15625 -198.097656 156.9375 -199.640625 C 168.425781 -204.609375 180.601562 -207.09375 193.46875 -207.09375 C 208.550781 -207.09375 221.238281 -203.578125 231.53125 -196.546875 C 233.25 -195.515625 234.535156 -193.113281 235.390625 -189.34375 C 239.847656 -170.820312 242.765625 -153.328125 244.140625 -136.859375 C 245.171875 -123.828125 245.515625 -106.421875 245.171875 -84.640625 Z M 86.703125 -96.734375 C 86.359375 -92.785156 83.867188 -90.8125 79.234375 -90.8125 C 77.523438 -90.8125 76.066406 -91.410156 74.859375 -92.609375 C 68.347656 -98.441406 62.519531 -108.304688 57.375 -122.203125 C 52.570312 -135.410156 50.679688 -145.785156 51.703125 -153.328125 C 52.046875 -156.242188 54.019531 -157.703125 57.625 -157.703125 C 60.03125 -157.703125 61.914062 -157.015625 63.28125 -155.640625 C 69.96875 -148.609375 75.710938 -138.488281 80.515625 -125.28125 C 85.148438 -113.28125 87.210938 -103.765625 86.703125 -96.734375 Z M 125.796875 -205.546875 C 111.222656 -190.285156 91.242188 -182.65625 65.859375 -182.65625 C 61.742188 -182.65625 54.453125 -183 43.984375 -183.6875 C 42.960938 -169.445312 42.363281 -150.410156 42.1875 -126.578125 C 42.1875 -104.109375 43.472656 -82.582031 46.046875 -62 C 51.191406 -62.6875 54.796875 -63.285156 56.859375 -63.796875 C 70.398438 -66.710938 82.488281 -70.144531 93.125 -74.09375 C 97.070312 -87.8125 99.300781 -104.273438 99.8125 -123.484375 C 99.988281 -140.296875 100.078125 -157.019531 100.078125 -173.65625 C 100.242188 -178.113281 102.726562 -180.171875 107.53125 -179.828125 C 111.820312 -179.316406 114.140625 -177 114.484375 -172.875 C 115.679688 -162.414062 116.707031 -151.957031 117.5625 -141.5 C 118.769531 -128.289062 119.375 -116.96875 119.375 -107.53125 C 119.375 -74.257812 111.738281 -47.546875 96.46875 -27.390625 C 81.207031 -7.242188 57.023438 7.71875 23.921875 17.5 C 23.066406 17.84375 22.210938 18.015625 21.359375 18.015625 C 16.722656 18.015625 14.40625 15.613281 14.40625 10.8125 C 14.40625 8.238281 15.519531 6.519531 17.75 5.65625 C 49.65625 -7.03125 72.035156 -26.238281 84.890625 -51.96875 C 70.660156 -45.28125 55.484375 -41.9375 39.359375 -41.9375 C 28.722656 -41.9375 19.375 -43.476562 11.3125 -46.5625 C 9.769531 -47.25 9 -49.476562 9 -53.25 C 9 -56.6875 10.203125 -58.316406 12.609375 -58.140625 C 16.035156 -58.140625 21.609375 -58.566406 29.328125 -59.421875 C 25.554688 -74.515625 23.328125 -84.207031 22.640625 -88.5 C 20.578125 -100.332031 19.71875 -113.109375 20.0625 -126.828125 C 20.238281 -137.972656 20.925781 -146.550781 22.125 -152.5625 C 24.695312 -164.050781 27.351562 -175.625 30.09375 -187.28125 C 31.300781 -193.113281 35.332031 -196.203125 42.1875 -196.546875 C 50.425781 -196.890625 62.429688 -198.945312 78.203125 -202.71875 C 97.242188 -207.351562 110.109375 -212.15625 116.796875 -217.125 C 118.171875 -218.15625 119.539062 -218.671875 120.90625 -218.671875 C 122.800781 -218.671875 124.519531 -217.941406 126.0625 -216.484375 C 127.601562 -215.023438 128.375 -213.179688 128.375 -210.953125 C 128.375 -209.066406 127.515625 -207.265625 125.796875 -205.546875 Z M 125.796875 -205.546875 "/></g></g></g></svg>